# This file uses centimeters as units for non-parametric coordinates.

mtllib Elbow_Glass.mtl
g default
v 0.688829 1.662983 -0.688831
v 1.272791 1.272792 -1.272793
v 1.662982 0.688830 -1.662983
v 0.344415 1.731491 -0.344415
v 0.344415 1.731491 -4.004972
v 0.688829 1.662983 -4.004972
v 1.272791 1.272792 -4.004972
v 1.662982 0.688831 -4.004972
v 1.731491 0.344416 -4.004972
v 1.731491 0.344415 -1.731490
v -0.765367 1.847759 0.765366
v -1.847759 0.765367 1.847759
v -1.414214 1.414214 1.414213
v -0.382684 1.923880 0.382683
v -0.382684 1.923880 -4.000000
v -0.765367 1.847759 -4.000000
v -1.414214 1.414213 -4.000000
v -1.847759 0.765367 -4.000000
v -1.923880 0.382683 -4.000000
v -1.923880 0.382683 1.923879
v 4.000000 0.382684 1.923880
v 4.000000 0.765367 1.847759
v 4.000000 1.414214 1.414213
v 4.000000 1.847759 0.765366
v 4.000000 1.923880 0.382683
v -0.765366 -1.847759 0.765367
v -1.414213 -1.414214 1.414214
v -1.847759 -0.765367 1.847759
v -1.923879 -0.382683 1.923880
v -1.923880 -0.382684 -4.000000
v -1.847759 -0.765367 -4.000000
v -1.414213 -1.414214 -4.000000
v -0.765366 -1.847759 -4.000000
v -0.382683 -1.923880 -4.000000
v -0.382683 -1.923880 0.382684
v 4.000000 -1.923880 0.382684
v 4.000000 -1.847759 0.765367
v 4.000000 -1.414213 1.414214
v 4.000000 -0.765367 1.847759
v 4.000000 -0.382683 1.923880
v 1.847759 -0.765367 -1.847759
v 1.414214 -1.414214 -1.414213
v 0.765367 -1.847759 -0.765366
v 0.382684 -1.923880 -0.382683
v 0.382684 -1.923879 -4.000000
v 0.765368 -1.847759 -4.000000
v 1.414214 -1.414213 -4.000000
v 1.847759 -0.765366 -4.000000
v 1.923880 -0.382682 -4.000000
v 1.923880 -0.382683 -1.923879
v 4.000000 -0.382684 -1.923879
v 4.000000 -0.765368 -1.847758
v 4.000000 -1.414214 -1.414213
v 4.000000 -1.847759 -0.765366
v 4.000000 -1.923880 -0.382683
v 0.765366 1.847759 -0.765367
v 1.414213 1.414214 -1.414214
v 1.847759 0.765367 -1.847759
v 1.923879 0.382683 -1.923880
v 1.923879 0.382684 -4.000000
v 1.847758 0.765368 -4.000000
v 1.414213 1.414214 -4.000000
v 0.765366 1.847759 -4.000000
v 0.382683 1.923880 -4.000000
v 0.382683 1.923880 -0.382684
v 4.000000 1.923879 -0.382684
v 4.000000 1.847759 -0.765368
v 4.000000 1.414213 -1.414214
v 4.000000 0.765366 -1.847759
v 4.000000 0.382682 -1.923880
v 1.662983 -0.688830 -1.662982
v 1.272793 -1.272792 -1.272791
v 0.688831 -1.662983 -0.688829
v 1.731490 -0.344415 -1.731491
v 1.731491 -0.344414 -4.000000
v 1.662983 -0.688829 -4.000000
v 1.272792 -1.272791 -4.000000
v 0.688831 -1.662982 -4.000000
v 0.344416 -1.731491 -4.000000
v 0.344415 -1.731491 -0.344415
v 4.000000 -1.731491 -0.344415
v 4.000000 -1.662983 -0.688829
v 4.000000 -1.272792 -1.272791
v 4.000000 -0.688831 -1.662982
v 4.000000 -0.344416 -1.731491
v -0.688829 -1.662983 0.688831
v -1.272791 -1.272792 1.272792
v -1.662983 -0.688830 1.662983
v -0.344415 -1.731491 0.344415
v -0.344415 -1.731491 -4.000000
v -0.688829 -1.662983 -4.000000
v -1.272792 -1.272792 -4.000000
v -1.662983 -0.688830 -4.000000
v -1.731491 -0.344415 -4.000000
v -1.731491 -0.344415 1.731491
v 4.000000 -0.344415 1.731491
v 4.000000 -0.688830 1.662983
v 4.000000 -1.272792 1.272792
v 4.000000 -1.662983 0.688830
v 4.000000 -1.731492 0.344415
v -1.662983 0.688830 1.662983
v -1.272792 1.272792 1.272791
v -0.688831 1.662983 0.688829
v -1.731491 0.344415 1.731491
v -1.731491 0.344415 -4.000000
v -1.662983 0.688830 -4.000000
v -1.272792 1.272792 -4.000000
v -0.688830 1.662983 -4.000000
v -0.344415 1.731492 -4.000000
v -0.344415 1.731491 0.344415
v 4.000000 1.731491 0.344415
v 4.000000 1.662983 0.688829
v 4.000000 1.272792 1.272792
v 4.000000 0.688830 1.662983
v 4.000000 0.344415 1.731491
v 1.662982 0.688830 -1.662983
v 1.731491 0.344415 -1.731490
v 4.000000 0.344414 -1.731491
v 4.000000 0.688829 -1.662983
v 4.000000 1.272791 -1.272792
v 1.272791 1.272792 -1.272793
v 4.000000 1.662982 -0.688831
v 0.688829 1.662983 -0.688831
v 4.000000 1.731491 -0.344416
v 0.344415 1.731491 -0.344415
vt -1.156490 1.413670
vt -1.156490 1.463060
vt -1.656490 1.463060
vt -1.656490 1.413670
vt -1.656490 1.132365
vt -1.156490 1.132365
vt -1.656490 0.711363
vt -1.156490 0.711363
vt -1.656490 0.463060
vt -1.156490 0.463060
vt -1.156490 1.413670
vt -1.156490 1.463060
vt -1.656490 1.463060
vt -1.656490 1.413670
vt -1.156490 1.132365
vt -1.656490 1.132365
vt -1.156490 0.711363
vt -1.656490 0.711363
vt -1.656490 0.463060
vt -1.156490 0.463060
vt -1.156490 1.214757
vt -1.156490 1.463060
vt -1.656490 1.463060
vt -1.656490 1.214757
vt -1.156490 0.793755
vt -1.656490 0.793755
vt -1.156490 0.512451
vt -1.656490 0.512451
vt -1.656490 0.463060
vt -1.156490 0.463060
vt -1.156490 1.214757
vt -1.156490 1.463060
vt -1.656490 1.463060
vt -1.656490 1.214757
vt -1.156490 0.793755
vt -1.656490 0.793755
vt -1.156490 0.512451
vt -1.656490 0.512451
vt -1.656490 0.463060
vt -1.156490 0.463060
vt -1.156490 1.413670
vt -1.156490 1.463060
vt -1.656490 1.463060
vt -1.656490 1.413670
vt -1.156490 1.132365
vt -1.656490 1.132365
vt -1.156490 0.711363
vt -1.656490 0.711363
vt -1.656490 0.463060
vt -1.156490 0.463060
vt -1.156490 0.512451
vt -1.156490 0.463060
vt -0.656490 0.463060
vt -0.656490 0.512451
vt -1.156490 0.793755
vt -0.656490 0.793755
vt -1.156490 1.214757
vt -0.656490 1.214757
vt -0.656490 1.463060
vt -1.156490 1.463060
vt -1.156490 0.711364
vt -1.156490 0.463061
vt -0.656490 0.463061
vt -0.656490 0.711364
vt -1.156490 1.132365
vt -0.656490 1.132365
vt -1.156490 1.413670
vt -0.656490 1.413670
vt -0.656490 1.463060
vt -1.156490 1.463060
vt -1.156490 0.711364
vt -1.156490 0.463061
vt -0.656490 0.463061
vt -0.656490 0.711364
vt -1.156490 1.132365
vt -0.656490 1.132365
vt -1.156490 1.413670
vt -0.656490 1.413670
vt -0.656490 1.463060
vt -1.156490 1.463060
vt -1.156490 0.512451
vt -1.156490 0.463060
vt -0.656490 0.463060
vt -0.656490 0.512451
vt -1.156490 0.793755
vt -0.656490 0.793755
vt -1.156490 1.214757
vt -0.656490 1.214757
vt -0.656490 1.463060
vt -1.156490 1.463060
vt -1.156490 1.214758
vt -1.156490 1.463060
vt -1.656490 1.463060
vt -1.656490 1.214758
vt -1.656490 0.793756
vt -1.156490 0.793756
vt -1.656490 0.512451
vt -1.156490 0.512451
vt -1.656490 0.463060
vt -1.156490 0.463060
vt -1.156490 1.413670
vt -1.156490 1.463060
vt -1.656490 1.463060
vt -1.656490 1.413670
vt -1.656490 1.132365
vt -1.156490 1.132365
vt -1.656490 0.711363
vt -1.156490 0.711363
vt -1.656490 0.463060
vt -1.156490 0.463060
vt -1.156490 0.512451
vt -1.156490 0.463060
vt -0.656490 0.463060
vt -0.656490 0.512451
vt -0.656490 0.793755
vt -1.156490 0.793755
vt -0.656490 1.214757
vt -1.156490 1.214757
vt -0.656490 1.463060
vt -1.156490 1.463060
vt -1.156490 0.711363
vt -1.156490 0.463060
vt -0.656490 0.463060
vt -0.656490 0.711363
vt -0.656490 1.132365
vt -1.156490 1.132365
vt -0.656490 1.413670
vt -1.156490 1.413670
vt -0.656490 1.463060
vt -1.156490 1.463060
vt -1.156490 0.711363
vt -1.156490 0.463060
vt -0.656490 0.463060
vt -0.656490 0.711363
vt -0.656490 1.132365
vt -1.156490 1.132365
vt -0.656490 1.413670
vt -1.156490 1.413670
vt -0.656490 1.463060
vt -1.156490 1.463060
vt -1.156490 0.512451
vt -1.156490 0.463060
vt -0.656490 0.463060
vt -0.656490 0.512451
vt -0.656490 0.793755
vt -1.156490 0.793755
vt -0.656490 1.214757
vt -1.156490 1.214757
vt -0.656490 1.463060
vt -1.156490 1.463060
vt -1.156490 1.214758
vt -1.156490 1.463060
vt -1.656490 1.463060
vt -1.656490 1.214758
vt -1.656490 0.793756
vt -1.156490 0.793756
vt -1.656490 0.512451
vt -1.156490 0.512451
vt -1.656490 0.463060
vt -1.156490 0.463060
vn -0.343143 -0.939283 -0.000000
vn -0.195091 -0.980785 -0.000000
vn -0.195091 -0.980785 -0.000000
vn -0.431400 -0.902161 -0.000000
vn -0.694682 -0.719317 -0.000000
vn -0.643573 -0.765385 -0.000000
vn -0.892875 -0.450304 0.000000
vn -0.878053 -0.478564 0.000000
vn -0.980785 -0.195091 0.000000
vn -0.980785 -0.195090 0.000000
vn -0.511046 0.859553 -0.000000
vn -0.195091 0.980785 -0.000000
vn -0.195091 0.980785 -0.000000
vn -0.451220 0.892413 -0.000000
vn -0.767033 0.641607 -0.000000
vn -0.714171 0.699971 -0.000000
vn -0.918340 0.395792 -0.000000
vn -0.898269 0.439445 -0.000000
vn -0.980785 0.195091 -0.000000
vn -0.980785 0.195091 -0.000000
vn -0.000000 0.395793 0.918340
vn -0.000000 0.195091 0.980785
vn -0.000000 0.195091 0.980785
vn -0.000000 0.439446 0.898269
vn -0.000000 0.641608 0.767033
vn -0.000000 0.699971 0.714171
vn -0.000000 0.859553 0.511046
vn -0.000000 0.892413 0.451219
vn -0.000000 0.980785 0.195090
vn -0.000000 0.980785 0.195090
vn -0.918340 -0.395792 0.000000
vn -0.980785 -0.195091 0.000000
vn -0.980785 -0.195091 0.000000
vn -0.898269 -0.439445 0.000000
vn -0.767033 -0.641608 0.000000
vn -0.714171 -0.699971 0.000000
vn -0.511046 -0.859553 0.000000
vn -0.451219 -0.892413 0.000000
vn -0.195090 -0.980785 0.000000
vn -0.195090 -0.980785 0.000000
vn 0.000000 -0.859553 0.511046
vn 0.000000 -0.980785 0.195091
vn 0.000000 -0.980785 0.195091
vn 0.000000 -0.892413 0.451220
vn 0.000000 -0.641608 0.767033
vn 0.000000 -0.699971 0.714171
vn 0.000000 -0.395792 0.918340
vn 0.000000 -0.439445 0.898269
vn 0.000000 -0.195090 0.980785
vn 0.000000 -0.195090 0.980785
vn 0.341333 -0.939942 -0.000000
vn 0.195091 -0.980785 -0.000000
vn 0.195091 -0.980785 -0.000000
vn 0.429703 -0.902970 -0.000000
vn 0.641737 -0.766925 -0.000000
vn 0.692544 -0.721376 -0.000000
vn 0.877417 -0.479729 -0.000000
vn 0.892148 -0.451744 -0.000000
vn 0.980785 -0.195090 -0.000000
vn 0.980785 -0.195090 -0.000000
vn 0.000000 -0.479730 -0.877416
vn 0.000000 -0.195091 -0.980785
vn 0.000000 -0.195091 -0.980785
vn 0.000000 -0.451745 -0.892147
vn -0.000000 -0.766925 -0.641737
vn -0.000000 -0.721376 -0.692544
vn -0.000000 -0.939942 -0.341333
vn -0.000000 -0.902970 -0.429703
vn -0.000000 -0.980785 -0.195090
vn -0.000000 -0.980785 -0.195090
vn 0.877416 0.479730 -0.000000
vn 0.980785 0.195091 -0.000000
vn 0.980785 0.195090 -0.000000
vn 0.892147 0.451745 -0.000000
vn 0.641737 0.766925 0.000000
vn 0.692544 0.721376 0.000000
vn 0.341333 0.939942 0.000000
vn 0.429703 0.902970 0.000000
vn 0.195090 0.980785 0.000000
vn 0.195090 0.980785 0.000000
vn 0.000000 0.939942 -0.341333
vn 0.000000 0.980785 -0.195091
vn 0.000000 0.980785 -0.195091
vn 0.000000 0.902970 -0.429703
vn 0.000000 0.766925 -0.641737
vn 0.000000 0.721376 -0.692544
vn 0.000000 0.479729 -0.877417
vn 0.000000 0.451744 -0.892148
vn 0.000000 0.195090 -0.980785
vn 0.000000 0.195090 -0.980785
vn -0.878047 0.478575 0.000000
vn -0.980785 0.195089 -0.000000
vn -0.980785 0.195089 -0.000000
vn -0.892868 0.450318 0.000000
vn -0.694660 0.719338 0.000000
vn -0.643554 0.765401 0.000000
vn -0.431382 0.902170 0.000000
vn -0.343123 0.939291 0.000000
vn -0.195091 0.980785 0.000000
vn -0.195091 0.980785 0.000000
vn 0.000000 0.939290 0.343123
vn 0.000000 0.980785 0.195091
vn 0.000000 0.980785 0.195091
vn 0.000000 0.902170 0.431382
vn 0.000000 0.719338 0.694660
vn 0.000000 0.765401 0.643554
vn -0.000000 0.450319 0.892868
vn -0.000000 0.478576 0.878046
vn -0.000000 0.195091 0.980785
vn -0.000000 0.195091 0.980785
vn 0.510690 0.859765 -0.000000
vn 0.195090 0.980785 -0.000000
vn 0.195090 0.980785 -0.000000
vn 0.450537 0.892758 -0.000000
vn 0.713632 0.700520 -0.000000
vn 0.766640 0.642078 -0.000000
vn 0.898145 0.439700 -0.000000
vn 0.918216 0.396080 -0.000000
vn 0.980785 0.195089 -0.000000
vn 0.980786 0.195089 -0.000000
vn -0.000000 0.396080 -0.918216
vn -0.000000 0.195090 -0.980785
vn -0.000000 0.195090 -0.980785
vn -0.000000 0.439699 -0.898145
vn -0.000000 0.700520 -0.713633
vn -0.000000 0.642077 -0.766640
vn -0.000000 0.892757 -0.450538
vn -0.000000 0.859765 -0.510690
vn 0.000000 0.980785 -0.195090
vn 0.000000 0.980785 -0.195090
vn 0.918216 -0.396080 0.000000
vn 0.980785 -0.195089 0.000000
vn 0.980785 -0.195089 0.000000
vn 0.898145 -0.439699 0.000000
vn 0.713633 -0.700520 0.000000
vn 0.766640 -0.642077 0.000000
vn 0.450538 -0.892758 0.000000
vn 0.510690 -0.859765 0.000000
vn 0.195090 -0.980785 0.000000
vn 0.195090 -0.980785 0.000000
vn 0.000000 -0.859765 -0.510689
vn -0.000000 -0.980785 -0.195091
vn -0.000000 -0.980785 -0.195091
vn 0.000000 -0.892758 -0.450537
vn 0.000000 -0.700520 -0.713632
vn 0.000000 -0.642078 -0.766640
vn 0.000000 -0.439700 -0.898145
vn 0.000000 -0.396080 -0.918216
vn 0.000000 -0.195089 -0.980785
vn 0.000000 -0.195089 -0.980786
vn -0.000000 -0.478575 0.878047
vn 0.000000 -0.195089 0.980786
vn 0.000000 -0.195089 0.980786
vn -0.000000 -0.450318 0.892868
vn -0.000000 -0.719338 0.694660
vn -0.000000 -0.765401 0.643554
vn -0.000000 -0.902170 0.431381
vn -0.000000 -0.939291 0.343123
vn -0.000000 -0.980785 0.195091
vn -0.000000 -0.980785 0.195091
s 1
g polySurface2 Elbow_Shell Elbow1 Finished_Pipes
usemtl aiStandardSurface1SG
f 1/1/1 4/2/2 5/3/3 6/4/4
f 6/4/4 7/5/5 2/6/6 1/1/1
f 7/5/5 8/7/7 3/8/8 2/6/6
f 8/7/7 9/9/9 10/10/10 3/8/8
s 2
f 11/11/11 14/12/12 15/13/13 16/14/14
f 13/15/15 11/11/11 16/14/14 17/16/16
f 12/17/17 13/15/15 17/16/16 18/18/18
f 19/19/19 20/20/20 12/17/17 18/18/18
s 3
f 12/21/21 20/22/22 21/23/23 22/24/24
f 13/25/25 12/21/21 22/24/24 23/26/26
f 11/27/27 13/25/25 23/26/26 24/28/28
f 25/29/29 14/30/30 11/27/27 24/28/28
s 4
f 28/31/31 29/32/32 30/33/33 31/34/34
f 27/35/35 28/31/31 31/34/34 32/36/36
f 26/37/37 27/35/35 32/36/36 33/38/38
f 34/39/39 35/40/40 26/37/37 33/38/38
s 5
f 26/41/41 35/42/42 36/43/43 37/44/44
f 27/45/45 26/41/41 37/44/44 38/46/46
f 28/47/47 27/45/45 38/46/46 39/48/48
f 40/49/49 29/50/50 28/47/47 39/48/48
s 6
f 43/51/51 44/52/52 45/53/53 46/54/54
f 42/55/55 43/51/51 46/54/54 47/56/56
f 41/57/57 42/55/55 47/56/56 48/58/58
f 49/59/59 50/60/60 41/57/57 48/58/58
s 7
f 41/61/61 50/62/62 51/63/63 52/64/64
f 42/65/65 41/61/61 52/64/64 53/66/66
f 43/67/67 42/65/65 53/66/66 54/68/68
f 55/69/69 44/70/70 43/67/67 54/68/68
s 8
f 58/71/71 59/72/72 60/73/73 61/74/74
f 57/75/75 58/71/71 61/74/74 62/76/76
f 56/77/77 57/75/75 62/76/76 63/78/78
f 64/79/79 65/80/80 56/77/77 63/78/78
s 9
f 56/81/81 65/82/82 66/83/83 67/84/84
f 57/85/85 56/81/81 67/84/84 68/86/86
f 58/87/87 57/85/85 68/86/86 69/88/88
f 70/89/89 59/90/90 58/87/87 69/88/88
s 10
f 71/91/91 74/92/92 75/93/93 76/94/94
f 76/94/94 77/95/95 72/96/96 71/91/91
f 77/95/95 78/97/97 73/98/98 72/96/96
f 78/97/97 79/99/99 80/100/100 73/98/98
s 11
f 73/101/101 80/102/102 81/103/103 82/104/104
f 82/104/104 83/105/105 72/106/106 73/101/101
f 83/105/105 84/107/107 71/108/108 72/106/106
f 84/107/107 85/109/109 74/110/110 71/108/108
s 12
f 86/111/111 89/112/112 90/113/113 91/114/114
f 91/114/114 92/115/115 87/116/116 86/111/111
f 92/115/115 93/117/117 88/118/118 87/116/116
f 93/117/117 94/119/119 95/120/120 88/118/118
s 13
f 88/121/121 95/122/122 96/123/123 97/124/124
f 97/124/124 98/125/125 87/126/126 88/121/121
f 98/125/125 99/127/127 86/128/128 87/126/126
f 99/127/127 100/129/129 89/130/130 86/128/128
s 14
f 101/131/131 104/132/132 105/133/133 106/134/134
f 106/134/134 107/135/135 102/136/136 101/131/131
f 107/135/135 108/137/137 103/138/138 102/136/136
f 108/137/137 109/139/139 110/140/140 103/138/138
s 15
f 103/141/141 110/142/142 111/143/143 112/144/144
f 112/144/144 113/145/145 102/146/146 103/141/141
f 113/145/145 114/147/147 101/148/148 102/146/146
f 114/147/147 115/149/149 104/150/150 101/148/148
s 16
f 116/151/151 117/152/152 118/153/153 119/154/154
f 119/154/154 120/155/155 121/156/156 116/151/151
f 120/155/155 122/157/157 123/158/158 121/156/156
f 122/157/157 124/159/159 125/160/160 123/158/158
